<svg width="54" height="54" viewBox="0 0 54 54" fill="none" xmlns="http://www.w3.org/2000/svg">
<g clip-path="url(#clip0_325_1794)">
<path d="M42.59 0H11.3C5.05918 0 0 5.05918 0 11.3V42.59C0 48.8308 5.05918 53.89 11.3 53.89H42.59C48.8308 53.89 53.89 48.8308 53.89 42.59V11.3C53.89 5.05918 48.8308 0 42.59 0Z" fill="white"/>
<path d="M27.47 16.19C26.55 12.39 22.21 9.52002 17 9.52002C11.11 9.52002 6.34003 13.18 6.34003 17.7C6.34003 17.7 6.34003 17.71 6.34003 17.72V29.26C6.34003 22.04 15.8 16.19 27.47 16.19Z" fill="black"/>
<path d="M26.94 42.3101C27.11 42.4701 27.35 42.4601 27.5 42.3301C27.49 42.3301 27.48 42.3301 27.47 42.3301C27.29 42.3301 27.12 42.3201 26.94 42.3101Z" fill="black"/>
<path d="M17 38.79C15.8 38.79 14.66 38.9 13.59 39.09C17.18 41.03 21.83 42.23 26.94 42.31C26.92 42.29 26.89 42.29 26.87 42.26C25.28 40.22 21.46 38.79 17 38.79Z" fill="black"/>
<path d="M27.66 42.0099V17.7099C27.66 17.7099 27.66 17.6999 27.66 17.6899C27.66 17.1699 27.59 16.6699 27.47 16.1799C15.8 16.1799 6.34003 22.0299 6.34003 29.2499C6.34003 33.1799 9.15003 36.6899 13.59 39.0899C14.66 38.8999 15.81 38.7899 17 38.7899C21.46 38.7899 25.29 40.2199 26.87 42.2599C26.89 42.2799 26.91 42.2899 26.94 42.3099C27.12 42.3099 27.29 42.3299 27.47 42.3299C27.48 42.3299 27.49 42.3299 27.5 42.3299C27.59 42.2599 27.66 42.1599 27.66 42.0199V42.0099Z" fill="black"/>
<path d="M12.64 20.7301C14.4018 20.7301 15.83 19.3019 15.83 17.5401C15.83 15.7783 14.4018 14.3501 12.64 14.3501C10.8782 14.3501 9.45001 15.7783 9.45001 17.5401C9.45001 19.3019 10.8782 20.7301 12.64 20.7301Z" fill="white"/>
<path d="M11.43 19.51C12.529 19.51 13.42 18.6191 13.42 17.52C13.42 16.421 12.529 15.53 11.43 15.53C10.331 15.53 9.44 16.421 9.44 17.52C9.44 18.6191 10.331 19.51 11.43 19.51Z" fill="black"/>
<path d="M2.71997 21.09L4.75997 22.27C5.25997 22.56 5.88997 22.2 5.88997 21.62V19.26C5.88997 18.68 5.25997 18.32 4.75997 18.61L2.71997 19.79C2.21997 20.08 2.21997 20.8 2.71997 21.09Z" fill="black"/>
<path d="M49.97 17.69C49.97 13.17 45.2 9.51001 39.31 9.51001C33.42 9.51001 28.65 13.17 28.65 17.69C28.65 17.69 28.65 17.7 28.65 17.71V42.01C28.65 42.43 29.18 42.6 29.44 42.26C31.03 40.22 34.85 38.79 39.31 38.79C43.77 38.79 47.6 40.22 49.18 42.26C49.44 42.59 49.97 42.43 49.97 42.01V17.71C49.97 17.71 49.97 17.7 49.97 17.69Z" fill="black"/>
<path d="M44.31 19.9301H43.11C43.47 19.1901 43.64 18.3501 43.54 17.4501C43.31 15.4001 41.65 13.7501 39.59 13.5301C37.86 13.3501 36.31 14.1601 35.43 15.4601L34.4 15.4401C34.24 15.4401 34.14 15.6101 34.22 15.7501L34.82 16.7901C34.66 17.4001 34.62 18.0501 34.73 18.7301C35.05 20.6001 36.58 22.0901 38.46 22.3601C39.94 22.5701 41.31 22.0501 42.26 21.1101C42.71 20.6901 43.63 20.3701 44.34 20.1701C44.47 20.1301 44.44 19.9401 44.31 19.9401V19.9301Z" fill="white"/>
<path d="M39.31 28.22C40.1937 28.22 40.91 27.5037 40.91 26.62C40.91 25.7364 40.1937 25.02 39.31 25.02C38.4264 25.02 37.71 25.7364 37.71 26.62C37.71 27.5037 38.4264 28.22 39.31 28.22Z" fill="white"/>
<path d="M39.31 32.8499C39.8402 32.8499 40.27 32.4201 40.27 31.8899C40.27 31.3597 39.8402 30.9299 39.31 30.9299C38.7798 30.9299 38.35 31.3597 38.35 31.8899C38.35 32.4201 38.7798 32.8499 39.31 32.8499Z" fill="white"/>
</g>
<defs>
<clipPath id="clip0_325_1794">
<rect width="53.89" height="53.89" fill="white"/>
</clipPath>
</defs>
</svg>
